<svg height="512pt" viewBox="0 0 512 512" width="512pt" xmlns="http://www.w3.org/2000/svg"><path d="m512 256c0 141.386719-114.613281 256-256 256s-256-114.613281-256-256 114.613281-256 256-256 256 114.613281 256 256zm0 0" fill="#0053bf"/><path d="m138.519531 389.5 122.4375 122.4375c139.09375-2.644531 251.042969-116.210938 251.042969-255.9375 0-.527344-.015625-1.050781-.019531-1.574219l-127.933594-127.9375zm0 0" fill="#1b3b6b"/><path d="m77 254c0-99.410156 80.589844-180 180-180s180 80.589844 180 180-81.777344 180-181.191406 180c-99.410156 0-178.808594-80.589844-178.808594-180zm0 0" fill="#ff9500"/><path d="m257 74c-.398438 0-.792969.011719-1.191406.015625v359.96875c.398437.003906-.398438.015625 0 .015625 99.414062 0 181.191406-80.589844 181.191406-180s-80.589844-180-180-180zm0 0" fill="#fe8205"/><path d="m121.5 254c0-74.835938 60.664062-135.5 135.5-135.5s135.5 60.664062 135.5 135.5-61.855469 135.5-136.691406 135.5c-74.832032 0-134.308594-60.664062-134.308594-135.5zm0 0" fill="#ffe000"/><path d="m257 118.5c-.398438 0-.792969.011719-1.191406.015625v270.96875c.398437.003906-.398438.015625 0 .015625 74.835937 0 136.691406-60.664062 136.691406-135.5s-60.664062-135.5-135.5-135.5zm0 0" fill="#ffc200"/><path d="m121.5 254c0 20.753906 4.671875 40.417969 13.015625 58h244.96875c8.34375-17.582031 13.015625-37.246094 13.015625-58 0-19.195312-4-37.453125-11.199219-54h-248.601562c-7.199219 16.546875-11.199219 34.804688-11.199219 54zm0 0" fill="#ffc200"/><path d="m392.5 254c0-19.195312-4-37.453125-11.199219-54h-125.492187v112h123.679687c8.339844-17.582031 13.011719-37.246094 13.011719-58zm0 0" fill="#ffa300"/><path d="m251.640625 219.703125-20.480469-4.230469c-8.550781-1.769531-17.136718 2.6875-17.136718 8.890625v15.292969c0 6.203125 8.585937 10.660156 17.136718 8.894531l20.480469-4.234375c2.445313-.503906 5.046875-.511718 7.496094-.019531l21.804687 4.375c8.527344 1.710937 17.035156-2.742187 17.035156-8.914063v-15.496093c0-6.171875-8.507812-10.625-17.035156-8.914063l-21.804687 4.375c-2.449219.492188-5.050781.484375-7.496094-.019531zm0 0" fill="#fff"/><path d="m280.941406 215.347656-21.804687 4.375c-1.085938.21875-2.207031.324219-3.328125.34375v23.886719c1.121094.023437 2.242187.125 3.328125.34375l21.804687 4.375c8.527344 1.710937 17.035156-2.742187 17.035156-8.914063v-15.496093c0-6.171875-8.507812-10.625-17.035156-8.914063zm0 0" fill="#e9edf5"/><path d="m248.628906 215.148438h14.742188v88.046874h-14.742188zm0 0" fill="#e6e6e6"/><path d="m255.808594 215.148438h7.5625v88.046874h-7.5625zm0 0" fill="#d7d7d7"/><path d="m283.4375 357.050781h-54.875v-65.933593c0-15.15625 12.285156-27.441407 27.4375-27.441407s27.4375 12.285157 27.4375 27.441407zm0 0" fill="#fff"/><path d="m283.4375 291.117188c0-15.15625-12.285156-27.441407-27.4375-27.441407-.0625 0-.128906.003907-.191406.007813v93.367187h27.628906zm0 0" fill="#e9edf5"/><path d="m230.300781 443.851562c0-14.195312 25.507813-51.402343 25.507813-51.402343s25.890625 37.207031 25.890625 51.402343c0 14.191407-11.695313 25.699219-25.890625 25.699219-14.191406 0-25.507813-11.507812-25.507813-25.699219zm0 0" fill="#ffe000"/><path d="m255.808594 392.449219s.117187.113281 0 .28125v76.816406c.066406 0-.0625.003906 0 .003906 14.195312 0 25.890625-11.507812 25.890625-25.703125 0-14.191406-25.890625-51.398437-25.890625-51.398437zm0 0" fill="#ffc200"/></svg>