<?xml version="1.0" encoding="iso-8859-1"?>
<!-- Generator: Adobe Illustrator 19.0.0, SVG Export Plug-In . SVG Version: 6.00 Build 0)  -->
<svg version="1.1" id="Capa_1" xmlns="http://www.w3.org/2000/svg" xmlns:xlink="http://www.w3.org/1999/xlink" x="0px" y="0px"
	 viewBox="0 0 512.001 512.001" style="enable-background:new 0 0 512.001 512.001;" xml:space="preserve">
<circle style="fill:#EF2E2E;" cx="254.423" cy="256" r="251.904"/>
<circle style="fill:#F25140;" cx="254.423" cy="256" r="171.953"/>
<rect x="68.633" y="210.051" transform="matrix(-0.979 0.204 -0.204 -0.979 354.2708 614.4678)" style="fill:#EDC87E;" width="153.666" height="230.884"/>
<path style="fill:#FEE9AB;" d="M255.173,447.238L93.49,480.925c-7.065,1.472-13.984-3.062-15.457-10.127l0,0
	c-1.472-7.065,3.062-13.984,10.127-15.457l161.684-33.687c7.065-1.472,13.984,3.062,15.457,10.127l0,0
	C266.772,438.846,262.237,445.765,255.173,447.238z"/>
<path style="fill:#FFF2D2;" d="M193.667,446.706c-1.472-7.065-8.392-11.598-15.457-10.127l-90.052,18.762
	c-7.065,1.472-11.598,8.392-10.127,15.457c1.472,7.065,8.392,11.598,15.457,10.127l90.052-18.762
	C190.605,460.69,195.139,453.771,193.667,446.706z"/>
<path style="fill:#EDC87E;" d="M66.461,279.969l-47.934,9.987c-12.532,2.612-20.65,15.001-18.038,27.534l19.021,91.294
	c2.612,12.532,15.001,20.65,27.534,18.038l47.934-9.987c12.532-2.612,20.65-15.001,18.038-27.534l-19.021-91.294
	C91.383,285.475,78.993,277.358,66.461,279.969z M82.526,398.074l-31.561,6.576c-5.802,1.209-11.486-2.515-12.695-8.317
	l-15.61-74.921c-1.209-5.802,2.515-11.486,8.317-12.695l31.561-6.576c5.802-1.209,11.486,2.515,12.695,8.317l15.61,74.921
	C92.052,391.181,88.329,396.865,82.526,398.074z"/>
<path style="fill:#FFE1AB;" d="M197.122,196.807L46.695,228.149l45.917,220.383c45.328-14.284,88.012-66.009,105.686-134.709
	c6.607-25.684,9.005-50.975,7.707-74.377L197.122,196.807z"/>
<path style="fill:#EA7B1F;" d="M209.902,418.095l-86.547,18.032c-6.902,1.438-13.662-2.991-15.101-9.893L74.828,265.808
	c-1.438-6.902,2.991-13.662,9.893-15.101l86.547-18.032c6.902-1.438,13.662,2.991,15.101,9.893l33.425,160.426
	C221.234,409.896,216.804,416.657,209.902,418.095z"/>
<path style="fill:#F49845;" d="M171.269,232.675l-86.547,18.032c-6.902,1.438-11.332,8.199-9.893,15.101l33.425,160.426
	c1.09,5.23,5.239,9.035,10.187,9.948c35.066-22.584,65.601-66.941,79.859-122.358c0.556-2.161,1.071-4.319,1.568-6.474
	l-13.497-64.78C184.932,235.666,178.171,231.237,171.269,232.675z"/>
<path style="fill:#FEE9AB;" d="M38.329,396.555c-0.017-0.075-0.042-0.146-0.058-0.222l-15.61-74.921
	c-1.209-5.802,2.515-11.486,8.317-12.695l31.561-6.576c0.323-0.067,0.645-0.113,0.965-0.151l-4.274-20.514l-40.703,8.48
	C5.996,292.567-2.121,304.956,0.49,317.489l19.021,91.294c0.696,3.343,2.093,6.366,3.999,8.961
	C28.744,411.206,33.701,404.118,38.329,396.555z"/>
<path style="fill:#DCF5F9;" d="M167.249,166.94c-2.566,0.535-5.015,1.322-7.329,2.328c-9.924-20.047-32.445-31.683-55.363-26.907
	c-20.057,4.179-34.803,19.763-38.908,38.563c-1.437,0.157-2.88,0.379-4.325,0.681c-24.192,5.04-39.716,28.738-34.676,52.93
	s28.738,39.716,52.93,34.676c13.771-2.87,24.727-11.788,30.686-23.398c7.945,8.537,20.028,12.833,32.277,10.28
	c9.889-2.06,17.896-8.169,22.654-16.234c5.493,1.476,11.401,1.731,17.351,0.491c20.271-4.224,33.28-24.08,29.056-44.352
	C207.377,175.725,187.521,162.716,167.249,166.94z"/>
<path style="fill:#FFFFFF;" d="M159.92,169.267c-4.285-8.657-10.924-15.741-18.927-20.617c-0.005,0.002-0.01,0.004-0.015,0.006
	c-0.004-0.008-0.008-0.015-0.012-0.023c-10.522-6.402-23.4-8.984-36.41-6.274c-20.057,4.179-34.803,19.763-38.908,38.563
	c-1.437,0.157-2.88,0.379-4.325,0.681c-24.192,5.04-39.716,28.738-34.676,52.93c0.682,3.274,1.716,6.382,3.036,9.308
	c9.083,5.082,19.963,7.046,30.951,4.757c13.771-2.87,24.727-11.788,30.686-23.398c7.945,8.537,20.028,12.833,32.277,10.28
	c9.889-2.06,17.896-8.169,22.654-16.234c5.493,1.476,11.401,1.731,17.351,0.491c20.271-4.224,33.28-24.08,29.056-44.352
	c-0.401-1.927-0.946-3.787-1.616-5.574c-7.15-3.419-15.435-4.613-23.793-2.872C164.683,167.474,162.234,168.262,159.92,169.267z"/>
<g>
	<circle style="fill:#FAAE73;" cx="111.928" cy="299.842" r="8.993"/>
	<circle style="fill:#FAAE73;" cx="141.642" cy="323.346" r="10.227"/>
	<circle style="fill:#FAAE73;" cx="143.483" cy="282.168" r="7.731"/>
	<circle style="fill:#FAAE73;" cx="114.067" cy="266.005" r="6.163"/>
	<circle style="fill:#FAAE73;" cx="127.7" cy="360.196" r="12.129"/>
</g>
<g>
	<path style="fill:#EDC87E;" d="M416.612,204.608l-5.479,93.093c-0.753,12.779,9.088,23.851,21.867,24.602l48.879,2.877
		c12.779,0.753,23.851-9.088,24.602-21.867l5.479-93.093c0.753-12.779-9.088-23.851-21.867-24.602l-48.879-2.877
		C428.435,181.988,417.364,191.829,416.612,204.608z M432.494,290.582l4.496-76.398c0.349-5.917,5.427-10.431,11.344-10.082
		l32.183,1.894c5.917,0.349,10.431,5.427,10.082,11.344l-4.496,76.398c-0.349,5.917-5.427,10.431-11.344,10.082l-32.183-1.894
		C436.66,301.578,432.146,296.498,432.494,290.582z"/>
	
		<rect x="292.884" y="123.9" transform="matrix(-0.9983 -0.0588 0.0588 -0.9983 724.7208 500.0082)" style="fill:#EDC87E;" width="153.666" height="230.884"/>
</g>
<path style="fill:#FEE9AB;" d="M443.836,385.489l-164.87-9.704c-7.203-0.424-12.7-6.607-12.275-13.812l0,0
	c0.424-7.203,6.607-12.7,13.812-12.275l164.87,9.704c7.203,0.424,12.7,6.607,12.275,13.812l0,0
	C457.223,380.416,451.04,385.913,443.836,385.489z"/>
<path style="fill:#FFF2D2;" d="M384.604,368.914c0.424-7.203-5.072-13.387-12.275-13.812l-91.827-5.404
	c-7.203-0.424-13.387,5.072-13.812,12.275c-0.424,7.203,5.072,13.387,12.275,13.812l91.827,5.404
	C377.996,381.614,384.179,376.117,384.604,368.914z"/>
<path style="fill:#FFE1AB;" d="M453.197,128.589l-153.392-9.027l-13.227,224.727c47.485-1.953,102.196-40.735,137.197-102.435
	c13.086-23.067,22.003-46.855,26.862-69.785L453.197,128.589z"/>
<path style="fill:#EA7B1F;" d="M407.746,345.535l-88.254-5.194c-7.038-0.414-12.407-6.455-11.994-13.493l9.628-163.588
	c0.414-7.038,6.455-12.407,13.494-11.994l88.254,5.194c7.038,0.414,12.407,6.455,11.994,13.493l-9.628,163.588
	C420.826,340.58,414.784,345.95,407.746,345.535z"/>
<path style="fill:#F49845;" d="M418.874,156.46l-88.254-5.194c-7.038-0.414-13.079,4.956-13.493,11.994L307.5,326.848
	c-0.314,5.333,2.697,10.09,7.235,12.262c39.746-12.642,80.806-47.486,109.039-97.26c1.101-1.941,2.162-3.89,3.205-5.84l3.888-66.057
	C431.282,162.916,425.912,156.875,418.874,156.46z"/>
<path style="fill:#DCF5F9;" d="M320.82,85.404c2.618,0.154,5.155,0.575,7.591,1.232c6.889-21.282,27.468-36.083,50.838-34.708
	c20.452,1.204,37.317,14.465,44.125,32.465c1.445-0.054,2.905-0.045,4.377,0.041c24.668,1.452,43.489,22.626,42.037,47.295
	s-22.626,43.489-47.295,42.037c-14.043-0.827-26.184-8.05-33.775-18.665c-6.612,9.605-17.938,15.621-30.429,14.886
	c-10.083-0.593-18.898-5.467-24.783-12.749c-5.218,2.263-11.026,3.379-17.092,3.021c-20.671-1.216-36.441-18.96-35.224-39.63
	S300.149,84.187,320.82,85.404z"/>
<path style="fill:#FFFFFF;" d="M423.374,84.391c-6.808-17.998-23.673-31.261-44.125-32.465
	c-23.371-1.376-43.949,13.426-50.838,34.708c-2.436-0.656-4.973-1.078-7.591-1.232c-20.671-1.216-38.414,14.554-39.63,35.224
	c-0.234,3.975,0.166,7.84,1.102,11.502c5.368,3.602,11.735,5.869,18.654,6.276c6.065,0.357,11.874-0.758,17.092-3.021
	c5.884,7.283,14.699,12.156,24.783,12.749c12.49,0.735,23.817-5.28,30.429-14.886c7.592,10.615,19.733,17.838,33.775,18.665
	c24.668,1.452,45.843-17.369,47.295-42.037c0.336-5.715-0.428-11.237-2.088-16.376c-6.837-5.217-15.25-8.524-24.482-9.068
	C426.278,84.346,424.818,84.337,423.374,84.391z"/>
<g>
	<circle style="fill:#FAAE73;" cx="399.355" cy="217.989" r="8.993"/>
	<circle style="fill:#FAAE73;" cx="366.597" cy="236.239" r="10.227"/>
	<circle style="fill:#FAAE73;" cx="379.131" cy="196.973" r="7.731"/>
	<circle style="fill:#FAAE73;" cx="354.948" cy="173.695" r="6.163"/>
	<circle style="fill:#FAAE73;" cx="343.525" cy="268.174" r="12.129"/>
</g>
<g>
	<path style="fill:#FFFFFF;" d="M145.521,82.767c-0.304,6.474-5.614,26.12-11.011,25.866c-5.397-0.254-8.838-20.311-8.534-26.785
		c0.304-6.474,4.926-11.517,10.324-11.263C141.697,70.839,145.825,76.292,145.521,82.767z"/>
	<path style="fill:#FFFFFF;" d="M182.544,119.184c-3.466,5.477-17.796,19.927-22.361,17.038c-4.565-2.889,2.362-22.025,5.828-27.501
		c3.466-5.477,9.977-7.575,14.543-4.684C185.119,106.925,186.01,113.707,182.544,119.184z"/>
	<path style="fill:#FFFFFF;" d="M274.713,30.073c3.415,5.509,10.16,24.709,5.568,27.555c-4.593,2.846-18.785-11.739-22.198-17.248
		c-3.414-5.509-2.459-12.283,2.133-15.129C264.808,22.404,271.299,24.564,274.713,30.073z"/>
	<path style="fill:#FFFFFF;" d="M253.066,73.314c6.135,2.091,23.531,12.651,21.787,17.765c-1.744,5.114-21.967,2.846-28.102,0.755
		c-6.135-2.091-9.695-7.933-7.951-13.047C240.544,73.674,246.931,71.222,253.066,73.314z"/>
</g>
<g>
</g>
<g>
</g>
<g>
</g>
<g>
</g>
<g>
</g>
<g>
</g>
<g>
</g>
<g>
</g>
<g>
</g>
<g>
</g>
<g>
</g>
<g>
</g>
<g>
</g>
<g>
</g>
<g>
</g>
</svg>
