<svg height="512pt" viewBox="-67 0 512 512.001" width="512pt" xmlns="http://www.w3.org/2000/svg"><path d="m336.066406 225.933594h-18.679687c-4.949219 9.792968-14.78125 16.777344-26.203125 17.648437-.679688.054688-1.351563.078125-2.023438.085938h.007813v12.886719h46.898437c2.082032 0 3.839844 1.757812 3.839844 3.835937v138.992187c0 2.082032-1.757812 3.839844-3.839844 3.839844h-46.898437v30.621094h46.898437c19.003906 0 34.460938-15.460938 34.460938-34.460938v-138.992187c0-19-15.457032-34.457031-34.460938-34.457031zm0 0" fill="#f3a334"/><path d="m289.167969 256.550781h21.371093v-21.53125c-5.179687 4.832031-11.925781 7.996094-19.355468 8.5625-.679688.050781-1.351563.074219-2.023438.085938h.007813zm0 0" fill="#e87e04"/><path d="m289.167969 403.222656h21.371093v30.621094h-21.371093zm0 0" fill="#e87e04"/><path d="m336.070312 403.222656h21.378907c2.078125 0 3.835937-1.757812 3.835937-3.839844v-138.992187c0-2.082031-1.757812-3.839844-3.835937-3.839844h-21.378907c2.078126 0 3.835938 1.761719 3.835938 3.839844v138.992187c0 2.082032-1.757812 3.839844-3.835938 3.839844zm0 0" fill="#e87e04"/><path d="m240.292969 23.625c0 8.644531-7.007813 15.648438-15.652344 15.648438-8.640625 0-15.648437-7.003907-15.648437-15.648438s7.007812-15.652344 15.648437-15.652344c8.644531 0 15.652344 7.007813 15.652344 15.652344zm0 0" fill="#ffe183"/><path d="m295.554688 462.613281c-2.421876 0-4.386719-1.960937-4.386719-4.382812v-216.5625c-15.394531.238281-28.359375-10.339844-31.777344-24.632813-.84375-3.542968-4.105469-5.976562-7.746094-5.976562h-204.367187c-.359375 0-.714844-.015625-1.070313-.027344v247.199219c0 2.421875-1.964843 4.386719-4.386719 4.386719-5.804687 0-10.511718 4.703124-10.511718 10.507812v21.339844c0 5.804687 4.707031 10.507812 10.511718 10.507812h253.734376c5.804687 0 10.511718-4.703125 10.511718-10.507812v-21.339844c0-5.804688-4.707031-10.511719-10.511718-10.511719zm0 0" fill="#f3a334"/><path d="m50.5625 494.464844v-21.339844c0-5.804688 4.707031-10.511719 10.511719-10.511719 2.421875 0 4.382812-1.960937 4.382812-4.382812v-247.171875h-18.175781c-.359375 0-.714844-.019532-1.074219-.027344v247.199219c0 2.421875-1.964843 4.382812-4.386719 4.382812-5.804687 0-10.507812 4.707031-10.507812 10.511719v21.339844c0 5.800781 4.703125 10.507812 10.507812 10.507812h19.253907c-5.808594 0-10.511719-4.707031-10.511719-10.507812zm0 0" fill="#e87e04"/><path d="m141.820312 433.84375c7.417969 0 13.433594-6.015625 13.433594-13.433594v-209.351562h-26.867187v209.351562c-.003907 7.417969 6.011719 13.433594 13.433593 13.433594zm0 0" fill="#e87e04"/><path d="m88.082031 433.84375c7.417969 0 13.433594-6.015625 13.433594-13.433594v-209.351562h-26.871094v209.351562c0 7.417969 6.015625 13.433594 13.4375 13.433594zm0 0" fill="#e87e04"/><path d="m92.949219 420.410156v-209.351562h-18.304688v209.347656c0 7.421875 6.015625 13.433594 13.4375 13.433594 3.539063 0 6.75-1.378906 9.152344-3.617188-2.628906-2.453125-4.285156-5.9375-4.285156-9.8125zm0 0" fill="#d86e05"/><path d="m146.6875 420.410156v-209.351562h-18.304688v209.347656c0 7.421875 6.015626 13.433594 13.4375 13.433594 3.539063 0 6.75-1.378906 9.152344-3.617188-2.628906-2.453125-4.285156-5.9375-4.285156-9.8125zm0 0" fill="#d86e05"/><path d="m249.296875 433.84375c7.417969 0 13.433594-6.015625 13.433594-13.433594v-194.960937c-1.484375-2.601563-2.621094-5.425781-3.335938-8.414063-.847656-3.542968-4.109375-5.976562-7.75-5.976562h-15.78125v209.351562c-.003906 7.417969 6.011719 13.433594 13.433594 13.433594zm0 0" fill="#e87e04"/><path d="m195.558594 433.84375c7.417968 0 13.433594-6.015625 13.433594-13.433594v-209.351562h-26.871094v209.351562c0 7.417969 6.015625 13.433594 13.4375 13.433594zm0 0" fill="#e87e04"/><path d="m200.425781 420.410156v-209.351562h-18.304687v209.347656c0 7.421875 6.015625 13.433594 13.4375 13.433594 3.539062 0 6.75-1.378906 9.152344-3.617188-2.628907-2.453125-4.285157-5.9375-4.285157-9.8125zm0 0" fill="#d86e05"/><path d="m254.164062 420.410156v-209.351562h-18.304687v209.347656c0 7.421875 6.015625 13.433594 13.4375 13.433594 3.539063 0 6.75-1.378906 9.152344-3.617188-2.628907-2.453125-4.285157-5.9375-4.285157-9.8125zm0 0" fill="#d86e05"/><path d="m41.820312 462.613281c-5.804687 0-10.511718 4.707031-10.511718 10.511719v21.339844c0 5.800781 4.707031 10.507812 10.511718 10.507812h253.734376c5.804687 0 10.511718-4.703125 10.511718-10.507812v-21.339844c0-5.804688-4.707031-10.511719-10.511718-10.511719-1.15625 0-2.203126-.457031-2.984376-1.1875h-247.761718c-.785156.730469-1.828125 1.1875-2.988282 1.1875zm0 0" fill="#e87e04"/><path d="m50.5625 494.464844v-21.339844c0-5.804688 4.707031-10.511719 10.511719-10.511719 1.15625 0 2.203125-.457031 2.988281-1.1875h-19.253906c-2.421875 2.265625-4.542969.0625-8.863282 2.984375-2.796874 1.890625-4.632812 5.085938-4.632812 8.714844v21.339844c0 3.625 1.835938 6.824218 4.632812 8.714844 1.675782 1.132812 3.699219 1.792968 5.875 1.792968h19.253907c-5.808594 0-10.511719-4.707031-10.511719-10.507812zm0 0" fill="#d86e05"/><path d="m343.8125 139.871094c-1.953125-38.800782-42.914062-64.574219-79.109375-47.980469-2.742187 1.257813-5.984375.238281-7.617187-2.300781-10.078126-15.632813-29.722657-21.882813-46.875-15.082032-2.785157 1.101563-5.894532-.21875-7.160157-2.933593-22.269531-47.691407-92.5625-40.84375-105.023437 10.363281-.695313 2.855469-3.65625 4.480469-6.425782 3.488281-28.03125-10.042969-56.53125 14.226563-51.238281 43.449219.660157 3.632812-1.523437 7.207031-5.058593 8.273438-15.738282 4.757812-27.253907 19.242187-27.539063 36.46875-.359375 21.691406 17.820313 39.441406 39.511719 39.441406h204.367187c3.640625 0 6.902344 2.433594 7.746094 5.976562 3.566406 14.914063 17.523437 25.789063 33.792969 24.546875 22.800781-1.738281 36.933594-26.714843 25.765625-47.332031-1.503907-2.777344-.863281-6.269531 1.695312-8.117188 14.796875-10.675781 24.167969-28.402343 23.167969-48.261718zm0 0" fill="#ffe183"/><g fill="#ffc964"><path d="m228.726562 23.625c0-4.902344 2.253907-9.273438 5.78125-12.144531-2.691406-2.191407-6.125-3.507813-9.867187-3.507813-8.644531 0-15.648437 7.007813-15.648437 15.652344 0 8.640625 7.007812 15.648438 15.648437 15.648438 3.742187 0 7.175781-1.316407 9.867187-3.507813-3.523437-2.867187-5.78125-7.238281-5.78125-12.140625zm0 0"/><path d="m279.125 219.035156c-.847656-3.542968-4.109375-5.976562-7.746094-5.976562h-19.734375c3.640625 0 6.898438 2.433594 7.746094 5.976562 3.566406 14.914063 17.523437 25.789063 33.792969 24.546875 2.574218-.195312 5.027344-.699219 7.355468-1.449219-10.597656-3.410156-18.800781-12.167968-21.414062-23.097656zm0 0"/><path d="m27.5 173.617188c.289062-17.222657 11.800781-31.710938 27.539062-36.46875 3.535157-1.066407 5.71875-4.640626 5.058594-8.273438-3.804687-21.015625 9.867188-39.46875 28.273438-44.441406-26.945313-7.15625-53.097656 16.34375-48.003906 44.441406.65625 3.632812-1.527344 7.207031-5.0625 8.273438-15.738282 4.757812-27.25 19.242187-27.539063 36.46875-.359375 21.691406 17.820313 39.441406 39.511719 39.441406h19.734375c-21.691407 0-39.871094-17.75-39.511719-39.441406zm0 0"/><path d="m111.335938 85.425781c2.769531.988281 5.730468-.632812 6.425781-3.488281 5.832031-23.964844 24.328125-38.210938 44.640625-41.703125-26.890625-4.636719-56.675782 10.058594-64.375 41.703125-.101563.433594-.265625.832031-.46875 1.203125 4.503906-.078125 9.148437.625 13.777344 2.285156zm0 0"/></g><path d="m247.53125 23.152344c0-12.765625-10.382812-23.152344-23.148438-23.152344-12.765624 0-23.152343 10.386719-23.152343 23.152344 0 12.761718 10.386719 23.148437 23.152343 23.148437 12.765626 0 23.148438-10.382812 23.148438-23.148437zm-31.300781 0c0-4.496094 3.65625-8.152344 8.148437-8.152344 4.496094 0 8.152344 3.65625 8.152344 8.152344 0 4.492187-3.65625 8.148437-8.152344 8.148437-4.492187 0-8.148437-3.65625-8.148437-8.148437zm0 0"/><path d="m104.839844 124.890625c0-4.140625-3.355469-7.5-7.5-7.5-4.144532 0-7.5 3.359375-7.5 7.5 0 19.519531 15.878906 35.398437 35.398437 35.398437 4.144531 0 7.5-3.359374 7.5-7.5 0-4.140624-3.355469-7.5-7.5-7.5-11.246093 0-20.398437-9.152343-20.398437-20.398437zm0 0"/><path d="m.0078125 173.015625c-.3828125 22.871094 16.3242185 42.105469 38.4374995 46.257813v235.636718c-8.515624 1.488282-14.894531 9.011719-14.894531 17.742188v21.335937c0 9.933594 8.078125 18.011719 18.007813 18.011719h253.734375c9.933593 0 18.011719-8.078125 18.011719-18.011719v-21.335937c0-8.699219-6.339844-16.246094-14.894532-17.742188v-14.039062h37.398438c23.136718 0 41.957031-18.824219 41.957031-41.960938v-51.996094c0-4.140624-3.355469-7.5-7.5-7.5-4.140625 0-7.5 3.359376-7.5 7.5v51.996094c0 14.863282-12.09375 26.957032-26.957031 26.957032h-37.398438v-15.617188h37.398438c6.25 0 11.335937-5.085938 11.335937-11.339844v-138.992187c0-6.253907-5.085937-11.339844-11.335937-11.339844h-32.550782c8.480469-2.902344 15.46875-8.589844 20.160157-15.617187h12.390625c14.863281 0 26.957031 12.09375 26.957031 26.957031v51.992187c0 4.144532 3.359375 7.503906 7.5 7.503906 4.144531 0 7.5-3.359374 7.5-7.503906v-51.992187c0-23.136719-18.820313-41.960938-41.957031-41.960938h-6.378906c1.507812-8.386719.28125-17.117187-3.703126-24.914062 16.9375-12.699219 26.382813-32.804688 25.316407-54.023438-2.171875-43.15625-47.339844-72.898437-88.5625-54.941406-11.800781-17.332031-33.917969-24.582031-53.617188-17.648437-7.226562-14.578126-18.855469-25.230469-33.710937-30.863282-3.875-1.46875-8.207032.480469-9.671875 4.355469-1.46875 3.871094.480469 8.203125 4.355469 9.671875 11.632812 4.410156 20.675781 12.941406 26.15625 24.679688 2.953124 6.324218 10.300781 9.28125 16.722656 6.730468 13.824218-5.480468 29.722656-.363281 37.804687 12.175782 3.648438 5.664062 10.976563 7.835937 17.046875 5.054687 31.757813-14.558594 66.828125 8.433594 68.492188 41.542969.832031 16.507812-6.667969 32.132812-20.066406 41.800781-5.542969 4.003906-7.21875 11.640625-3.898438 17.769531 9.035156 16.679688-3.488281 36.410156-21.761719 36.347656-11.453125-.039062-21.324219-8.097656-23.90625-18.878906-1.652343-6.90625-7.839843-11.730468-15.042969-11.730468-11.023437 0-205.285156-.023438-205.285156-.023438-16.929687-.496094-31.382812-14.421875-31.09375-31.796875.226563-13.644531 9.152344-25.464844 22.210938-29.410156 7.191406-2.175781 11.605468-9.394531 10.269531-16.792969-4.28125-23.609375 18.769531-43.132812 41.328125-35.050781 6.96875 2.492187 14.5-1.609375 16.242188-8.773438 4.316406-17.742187 16.832031-30.554687 34.339843-35.148437 4.007813-1.054688 6.402344-5.152344 5.351563-9.160156-1.050782-4.007813-5.148438-6.40625-9.160156-5.351563-21.777344 5.71875-38.195313 21.851563-44.398438 43.441406-32.609375-9.550781-64.496094 18.675781-58.5 52.53125-19.222656 5.894531-32.347656 23.339844-32.6796875 43.464844zm298.2968755 320.972656c0 1.660157-1.351563 3.011719-3.011719 3.011719h-253.734375c-1.660156 0-3.007813-1.351562-3.007813-3.011719v-21.335937c0-1.660156 1.347657-3.011719 3.007813-3.011719 1.808594 0 3.679687-.464844 5.175781-1.191406h243.386719c1.484375.722656 3.335937 1.191406 5.171875 1.191406 1.660156 0 3.011719 1.351563 3.011719 3.011719zm33.839843-98.742187h-33.734375v-131.667969h33.734375zm-80.761719-175.160156c.203126 0 .425782.082031.476563.300781.667969 2.765625 1.710937 5.714843 3.109375 8.515625v191.03125c0 3.269531-2.660156 5.933594-5.933594 5.933594-3.273437 0-5.933594-2.660157-5.933594-5.933594v-199.847656zm-50.152343 0v199.847656c0 3.273437-2.664063 5.933594-5.933594 5.933594-3.273437 0-5.933594-2.660157-5.933594-5.933594v-199.847656zm-53.738281 0v199.847656c0 3.273437-2.660157 5.933594-5.933594 5.933594-3.273438 0-5.933594-2.660157-5.933594-5.933594v-199.847656zm-53.738282 0v199.847656c0 3.273437-2.664062 5.933594-5.933594 5.933594-3.273437 0-5.933593-2.660157-5.933593-5.933594v-199.847656zm-26.867187 0v199.847656c0 11.542968 9.390625 20.9375 20.933593 20.9375 11.542969 0 20.933594-9.394532 20.933594-20.9375v-199.847656h11.871094v199.847656c0 11.542968 9.390625 20.9375 20.933594 20.9375 11.542968 0 20.9375-9.394532 20.9375-20.9375v-199.847656h11.867187v199.847656c0 11.542968 9.390625 20.9375 20.933594 20.9375s20.9375-9.394532 20.9375-20.9375v-199.847656h11.867187v199.847656c0 11.542968 9.390626 20.9375 20.933594 20.9375 11.546875 0 20.9375-9.394532 20.9375-20.9375v-174.84375c4.082032 2.441406 8.625 4.15625 13.4375 5.003906v152.65625 50.699219h-229.964844v-233.363281zm0 0"/></svg>