<svg height="512pt" viewBox="0 0 512 512" width="512pt" xmlns="http://www.w3.org/2000/svg"><path d="m512 256c0 141.386719-114.613281 256-256 256s-256-114.613281-256-256 114.613281-256 256-256 256 114.613281 256 256zm0 0" fill="#6e79e4"/><path d="m268.054688 511.710938c135.785156-6.296876 243.945312-118.367188 243.945312-255.710938 0-.375-.011719-.75-.015625-1.125l-163.078125-163.078125-201.988281 34.398437 128.273437 128.273438-82.445312 181.933594zm0 0" fill="#2038da"/><path d="m302.410156 445.476562h-88.347656c-18.546875 0-32.484375-16.832031-29.128906-35.074218 19.261718-104.824219-52.140625-209.652344-10.113282-314.476563h166.832032c42.027344 104.824219-29.375 209.652344-10.113282 314.476563 3.355469 18.242187-10.582031 35.074218-29.128906 35.074218zm0 0" fill="#ffd93b"/><path d="m341.652344 95.925781h-86.105469v349.550781h46.863281c18.546875 0 32.484375-16.832031 29.132813-35.074218-19.265625-104.824219 52.136719-209.652344 10.109375-314.476563zm0 0" fill="#fdba12"/><path d="m317.230469 76.792969c-2.285157 0-4.527344.195312-6.710938.554687-4.785156-12.933594-17.226562-22.15625-31.824219-22.15625-7.253906 0-13.972656 2.289063-19.488281 6.167969-6.195312-6.6875-15.050781-10.878906-24.886719-10.878906-14.5625 0-26.976562 9.179687-31.785156 22.066406-2.210937-.300781-4.460937-.46875-6.75-.46875-27.542968 0-49.875 22.332031-49.875 49.875v.097656c.011719 5.175781 4.308594 9.328125 9.484375 9.328125h4.320313v47.800782c0 7.875 6.382812 14.253906 14.253906 14.253906 7.875 0 14.253906-6.378906 14.253906-14.253906v-47.800782h156.179688c7.5 0 13.742187-6 13.769531-13.503906 0-.046875 0-.09375 0-.144531 0-22.609375-18.328125-40.9375-40.941406-40.9375zm0 0" fill="#fff"/><path d="m317.230469 76.792969c-2.285157 0-4.527344.195312-6.710938.554687-4.785156-12.933594-17.226562-22.15625-31.824219-22.15625-7.253906 0-13.972656 2.289063-19.488281 6.167969-1.132812-1.222656-2.359375-2.359375-3.660156-3.40625v73.425781h88.855469c7.5 0 13.742187-6 13.769531-13.503906 0-.046875 0-.09375 0-.140625 0-22.613281-18.328125-40.941406-40.941406-40.941406zm0 0" fill="#e9edf5"/><g fill="#fdba12"><path d="m234.402344 383.910156c0 7.992188-6.476563 14.46875-14.46875 14.46875-7.992188 0-14.46875-6.476562-14.46875-14.46875 0-7.992187 6.476562-14.472656 14.46875-14.472656 7.992187 0 14.46875 6.480469 14.46875 14.472656zm0 0"/><path d="m230.996094 199.484375c0 7.992187-6.476563 14.46875-14.46875 14.46875-7.992188 0-14.46875-6.476563-14.46875-14.46875s6.476562-14.46875 14.46875-14.46875c7.992187 0 14.46875 6.476563 14.46875 14.46875zm0 0"/><path d="m254.546875 305.03125c0 5.328125-4.316406 9.648438-9.644531 9.648438s-9.648438-4.320313-9.648438-9.648438 4.320313-9.644531 9.648438-9.644531 9.644531 4.316406 9.644531 9.644531zm0 0"/></g><path d="m311.859375 384.476562c0 5.328126-4.316406 9.648438-9.644531 9.648438s-9.648438-4.320312-9.648438-9.648438c0-5.328124 4.320313-9.648437 9.648438-9.648437s9.644531 4.320313 9.644531 9.648437zm0 0" fill="#ff9d00"/><path d="m308.457031 260.203125c0 11.28125-9.148437 20.429687-20.429687 20.429687s-20.425782-9.148437-20.425782-20.429687 9.144532-20.429687 20.425782-20.429687 20.429687 9.148437 20.429687 20.429687zm0 0" fill="#ff9d00"/></svg>