<svg height="512pt" viewBox="0 0 512.2552 512" width="512pt" xmlns="http://www.w3.org/2000/svg"><path d="m478.144531 425.226562-12.703125 2.5-390 75.402344c-8.398437 1.199219-17-1-23.796875-6.300781-6.800781-5.300781-11.101562-13-12-21.5l-30.5-193.300781c-2.101562-12.5 2.597657-25.199219 12.199219-33.5 3.699219-3 8.199219-5.101563 12.898438-6.101563l402.699218-77.796875c8.5-1.300781 17 1 23.800782 6.199219 6.800781 5.199219 11.101562 13 12 21.5l30.402343 193.398437c3.398438 17.800782-7.601562 35.101563-25 39.5zm0 0" fill="#c52828"/><path d="m465.34375 427.726562-389.902344 75.402344c-8.398437 1.199219-17-1-23.796875-6.300781-6.800781-5.300781-11.101562-13-12-21.5l-30.5-193.300781c-2.101562-12.5 2.597657-25.199219 12.199219-33.5l390-75.300782c8.5-1.300781 17 1 23.800781 6.199219 6.796875 5.203125 11.097657 13 12 21.5l30.5 193.402344c2 12.5-2.601562 25.199219-12.300781 33.398437zm0 0" fill="#f44335"/><path d="m256.144531 68.425781c-18.902343 0-34.101562-15.296875-34.101562-34.097656s15.199219-34.199219 34.101562-34.199219c18.898438 0 34.097657 15.296875 34.097657 34.097656 0 9.101563-3.597657 17.699219-10 24.101563-6.398438 6.398437-15 10.097656-24.097657 10.097656zm0 0" fill="#607d8b"/><path d="m.742188 283.328125 30.5 193.300781c1.699218 11.5 8 21.796875 17.402343 28.597656 6.199219 4.402344 13.699219 6.800782 21.296875 6.800782 2.300782 0 4.703125-.199219 7-.699219l402.703125-77.800781c22-5.300782 36-26.898438 31.898438-49.199219l-30.601563-193.300781c-1.699218-11.5-8-21.800782-17.398437-28.601563-8.199219-5.898437-18.398438-8.097656-28.300781-6.199219l-26.5 5.101563-120.5-138.300781c-3.597657-10.398438-12.097657-18.398438-22.699219-21.398438-.101563 0-.101563-.101562-.101563-.101562-.796875-.300782-1.597656-.5-2.398437-.699219-2.300781-.5-4.601563-.699219-6.898438-.699219-.902343 0-1.902343.097656-2.800781.296875-15.800781 1.300781-28.601562 13.300781-30.902344 28.902344l-130.199218 193.300781-59.597657 11.5c-22.101562 5.296875-36.101562 26.898438-31.902343 49.199219zm255.402343-266.101563c7.898438 0 14.699219 5.402344 16.5 13l.097657.199219c1.601562 7.101563-1.398438 14.402344-7.5 18.300781-6.097657 3.902344-14.097657 3.402344-19.699219-1.097656-5.699219-4.5-7.898438-12.101562-5.5-19 2.398437-6.902344 8.800781-11.402344 16.101562-11.402344zm-28.703125 35.300782c6.703125 10.601562 18.800782 16.699218 31.300782 15.699218s23.5-8.800781 28.601562-20.300781l102 117.101563-273.5 52.898437zm-148.699218 190-17.398438 25.800781c-1.800781 2.5-2 5.800781-.699219 8.597656 1.296875 2.800781 4.097657 4.601563 7.097657 4.800781 3.101562.199219 6-1.300781 7.699218-3.898437l26.902344-40 299.898438-58 26.601562 30.5c2 2.300781 5.097656 3.398437 8.097656 2.800781 3-.601562 5.402344-2.703125 6.402344-5.601562 1-2.898438.398438-6.101563-1.601562-8.398438l-20.097657-23 16.796875-3.300781c1.203125-.199219 2.5-.402344 3.703125-.402344 4.199219 0 8.199219 1.300781 11.597657 3.800781 5.601562 4.101563 9.402343 10.402344 10.402343 17.300782l30.5 193.300781c2.796875 13.199219-5.300781 26.300781-18.300781 29.800781l-402.601562 78.097656c-5.398438 1-10.898438-.199218-15.300782-3.398437-5.597656-4.101563-9.398437-10.402344-10.398437-17.300781l-30.5-193.398438c-2.800781-13.203125 5.300781-26.300781 18.300781-29.800781zm0 0"/><path d="m51.742188 388.425781c2.800781 5.402344 6.5 10.300781 11 14.402344 4.300781 4 9.402343 7 15 8.800781 5.699218 1.796875 11.699218 2.199219 17.5 1.097656 5.902343-1.097656 11.300781-3.699218 16-7.5 2.402343-1.898437 3.601562-4.898437 3.101562-8-.5-3-2.5-5.597656-5.300781-6.699218-2.800781-1.101563-6.101563-.601563-8.398438 1.300781-2.5 2-5.402343 3.398437-8.5 4-3 .597656-6.101562.398437-9.101562-.601563-3.300781-1.097656-6.199219-2.898437-8.699219-5.199218-3-2.699219-5.5-6-7.300781-9.601563-2.101563-4.199219-3.601563-8.597656-4.300781-13.199219-.699219-4.699218-.699219-9.5 0-14.199218.699218-4.199219 2-8.300782 4-12 1.699218-3.199219 4-6.101563 6.800781-8.398438 2.5-2 5.398437-3.402344 8.5-4 3-.601562 6.199219-.402344 9.101562.597656 4.5 1.402344 9.296875-1 10.699219-5.5 1.398438-4.5-1-9.300781-5.5-10.699218-5.699219-1.800782-11.699219-2.199219-17.5-1.101563-5.902344 1.101563-11.402344 3.703125-16 7.5-4.601562 3.703125-8.402344 8.402344-11.199219 13.601563-2.902343 5.398437-4.902343 11.300781-5.800781 17.398437-1 6.5-1 13.101563 0 19.601563.898438 6.300781 2.898438 12.601562 5.898438 18.398437zm0 0"/><path d="m131.84375 402.925781c1.898438 1.300781 4.199219 1.800781 6.5 1.402344l38-7.300781c4.597656-.898438 7.699219-5.398438 6.800781-10-.902343-4.601563-5.402343-7.699219-10-6.800782l-29.300781 5.699219-11.902344-75.296875c-.398437-3.101562-2.398437-5.800781-5.296875-6.902344-2.902343-1.097656-6.203125-.597656-8.601562 1.402344-2.398438 2-3.5 5.199219-2.898438 8.199219l13.296875 84.097656c.203125 2.101563 1.5 4.203125 3.402344 5.5zm0 0"/><path d="m196.34375 382.226562c5.800781 4.199219 12.699219 6.402344 19.800781 6.5 2 0 3.898438-.199218 5.898438-.597656 21.601562-4.203125 35-29.5 30.601562-57.601562-1.902343-14.800782-9.601562-28.199219-21.402343-37.199219-7.398438-5.402344-16.597657-7.5-25.597657-6-21.601562 4.199219-35 29.5-30.601562 57.597656 1.699219 14.800781 9.398437 28.203125 21.300781 37.300781zm12.300781-78.097656c.898438-.203125 1.796875-.300781 2.699219-.300781 3.597656.097656 7 1.300781 9.898438 3.398437 8 6.402344 13.199218 15.699219 14.402343 25.902344 2.898438 18.398438-4.902343 35.796875-17 38.199219-4.5.699219-9-.402344-12.601562-3.199219-8-6.402344-13.199219-15.703125-14.398438-25.902344-2.800781-18.300781 4.898438-35.800781 17-38.097656zm0 0"/><path d="m266.542969 317.128906c1.898437 3.199219 4.300781 6.097656 7.300781 8.296875 2.898438 2.300781 6.300781 3.902344 9.898438 4.902344 3.699218 1 7.601562 1.097656 11.402343.300781 1.296875-.203125 2.597657-.203125 3.898438.097656 1.300781.300782 2.5 1 3.601562 1.800782 1.199219.898437 2.199219 2.101562 3 3.5.898438 1.5 1.398438 3.199218 1.699219 4.898437.300781 1.800781.199219 3.601563-.101562 5.402344-.300782 1.597656-.898438 3.199219-1.800782 4.597656-.796875 1.300781-1.898437 2.402344-3.097656 3.300781-1.101562.800782-2.402344 1.402344-3.800781 1.601563-1.300781.300781-2.601563.199219-3.898438-.101563-1.300781-.300781-2.601562-1-3.601562-1.800781-1.199219-1-2.199219-2.097656-3-3.5-2.5-3.796875-7.5-5-11.5-2.699219-3.898438 2.300782-5.398438 7.300782-3.300781 11.300782 1.902343 3.199218 4.300781 6 7.300781 8.300781 2.898437 2.300781 6.300781 4 9.898437 4.898437 3.703125 1 7.601563 1.101563 11.402344.300782 3.800781-.699219 7.300781-2.300782 10.5-4.5 3-2.199219 5.597656-4.898438 7.597656-8 2-3.101563 3.402344-6.601563 4.101563-10.300782.800781-3.800781.898437-7.699218.300781-11.5-.601562-3.800781-1.902344-7.5-3.800781-10.898437-1.898438-3.199219-4.300781-6.101563-7.300781-8.300781-2.898438-2.300782-6.300782-3.898438-9.898438-4.898438-3.699219-1-7.601562-1.101562-11.402344-.300781-1.296875.300781-2.597656.199219-3.898437-.101563-1.300781-.300781-2.601563-1-3.601563-1.800781-1.199218-.898437-2.199218-2.097656-3-3.398437-.898437-1.5-1.398437-3.199219-1.699218-4.898438-.300782-1.800781-.199219-3.601562.101562-5.402344.300781-1.597656 1-3.199218 1.898438-4.699218.800781-1.300782 1.902343-2.398438 3.101562-3.300782 1.097656-.800781 2.398438-1.398437 3.800781-1.597656 1.296875-.300781 2.597657-.203125 3.898438.097656 1.300781.402344 2.601562 1 3.601562 1.800782 1.199219.898437 2.199219 2.101562 3 3.5 1.5 2.699218 4.296875 4.398437 7.398438 4.398437 3.101562 0 5.898437-1.699219 7.398437-4.296875 1.5-2.703125 1.5-6-.097656-8.601562-1.902344-3.199219-4.300781-6.101563-7.300781-8.300782-2.898438-2.300781-6.300781-3.898437-9.898438-4.898437-3.703125-.902344-7.601562-1.101563-11.402343-.300781-3.800782.699218-7.300782 2.300781-10.5 4.5-3 2.199218-5.597657 4.898437-7.597657 8-2 3.199218-3.402343 6.699218-4.203125 10.300781-.796875 3.800781-.898437 7.699219-.296875 11.5.699219 3.800781 2 7.5 3.898438 10.800781zm0 0"/><path d="m334.441406 314.425781 6.601563 41.703125c.699219 4.097656 4.199219 7.199219 8.398437 7.199219.5 0 1.101563-.101563 1.601563-.199219l38-7.300781c4.601562-.902344 7.699219-5.402344 6.800781-10-.902344-4.601563-5.402344-7.699219-10-6.800781l-29.300781 5.699218-4-25.199218 14.699219-2.800782c4.601562-.898437 7.699218-5.398437 6.800781-10-.898438-4.597656-5.398438-7.699218-10-6.800781l-14.101563 2.703125-4-25.203125 29.902344-5.796875c4.597656-.902344 7.699219-5.402344 6.800781-10-.902343-4.601562-5.402343-7.703125-10-6.800781l-38 7.300781c-4.5.898438-7.5 5.199219-6.800781 9.699219zm0 0"/><path d="m417.84375 350.128906h.300781c14.5-.800781 28-7.203125 37.796875-17.800781 9.300782-12.199219 12.703125-27.902344 9.203125-42.902344-1.203125-15.097656-9.300781-28.796875-22-37.097656-12.902343-6.5-27.902343-7.5-41.601562-2.800781-3.898438 1.398437-6.199219 5.300781-5.5 9.398437l13.300781 84.101563c.699219 4.101562 4.300781 7.101562 8.5 7.101562zm16.800781-83.101562c8.097657 5.898437 13.199219 15.101562 13.796875 25.101562 2.5 10.097656.5 20.796875-5.5 29.296875-4.699218 5.300781-11 9-17.898437 10.5l-10.699219-67.796875c6.800781-1.402344 14-.402344 20.300781 2.898438zm0 0"/></svg>