<svg height="512pt" viewBox="0 0 512 512" width="512pt" xmlns="http://www.w3.org/2000/svg"><path d="m512 256c0 141.386719-114.613281 256-256 256s-256-114.613281-256-256 114.613281-256 256-256 256 114.613281 256 256zm0 0" fill="#5a5a5a"/><path d="m290.300781 509.707031c120.441407-16.132812 214.359375-115.996093 221.277344-239.121093l-161.523437-161.523438-27.511719 16.160156-66.542969-66.542968-120.5 294.726562 99.050781 99.054688-.632812.859374zm0 0" fill="#353535"/><path d="m256 203.117188h-35.558594c-32.304687 0-58.496094-26.191407-58.496094-58.496094v-35.558594h35.558594c32.308594 0 58.496094 26.1875 58.496094 58.496094zm0 0" fill="#1fcb79"/><path d="m256 203.117188h35.558594c32.304687 0 58.496094-26.191407 58.496094-58.496094v-35.558594h-35.558594c-32.308594 0-58.496094 26.1875-58.496094 58.496094zm0 0" fill="#1fcb79"/><path d="m256 277.015625h-48.191406c-43.78125 0-79.273438-35.492187-79.273438-79.273437v-48.191407h48.191406c43.78125 0 79.273438 35.492188 79.273438 79.273438zm0 0" fill="#27ec8d"/><path d="m256 277.015625h48.191406c43.78125 0 79.273438-35.492187 79.273438-79.273437v-48.191407h-48.191406c-43.78125 0-79.273438 35.492188-79.273438 79.273438zm0 0" fill="#27ec8d"/><path d="m256 236.160156-33.550781-33.546875c-30.480469-30.480469-30.480469-79.902343 0-110.382812l33.550781-33.550781 33.550781 33.546874c30.480469 30.484376 30.480469 79.902344 0 110.382813zm0 0" fill="#1fcb79"/><path d="m289.550781 92.230469-33.550781-33.550781v177.480468l33.550781-33.546875c30.480469-30.484375 30.480469-79.902343 0-110.382812zm0 0" fill="#18a965"/><path d="m256 393.925781-41.628906-41.632812c-37.824219-37.820313-37.824219-99.140625 0-136.964844l41.628906-41.628906 41.628906 41.628906c37.824219 37.824219 37.824219 99.144531 0 136.964844zm0 0" fill="#18a965"/><path d="m297.628906 215.328125-41.628906-41.628906v220.226562l41.628906-41.632812c37.824219-37.820313 37.824219-99.140625 0-136.964844zm0 0" fill="#15985b"/><path d="m256 375.542969h-58.875c-53.488281 0-96.847656-43.359375-96.847656-96.847657v-58.875h58.875c53.488281 0 96.847656 43.359376 96.847656 96.847657zm0 0" fill="#1fcb79"/><path d="m256 375.542969h58.875c53.488281 0 96.847656-43.359375 96.847656-96.847657v-58.875h-58.875c-53.488281 0-96.847656 43.359376-96.847656 96.847657zm0 0" fill="#18a965"/><path d="m233.917969 375.542969h44.164062v77.777343h-44.164062zm0 0" fill="#18a965"/><path d="m256 375.542969h22.082031v77.777343h-22.082031zm0 0" fill="#15985b"/></svg>