<svg height="504pt" viewBox="0 0 504.1596 504" width="504pt" xmlns="http://www.w3.org/2000/svg"><path d="m495.605469 420.261719c1.753906 18.445312-11.769531 34.824219-30.214844 36.59375l-16.449219 1.597656h-.085937l-385.425781 36.679687c-18.449219 1.75-34.828126-11.773437-36.597657-30.21875l-18.296875-192.207031c-1.4375-14.820312 7.078125-28.804687 20.898438-34.332031h.085937c2.953125-1.195312 6.0625-1.957031 9.234375-2.265625l401.960938-38.273437c18.445312-1.753907 34.824218 11.769531 36.59375 30.214843zm0 0" fill="#558b30"/><path d="m448.941406 458.453125h-.085937l-385.425781 36.679687c-18.449219 1.75-34.828126-11.773437-36.597657-30.21875l-18.296875-192.207031c-1.4375-14.820312 7.078125-28.804687 20.898438-34.332031h.085937l385.425781-36.679688c18.449219-1.75 34.828126 11.773438 36.597657 30.21875l18.296875 192.207032c1.4375 14.820312-7.078125 28.808594-20.898438 34.332031zm0 0" fill="#8bc34a"/><path d="m257.738281 17.628906c-1.074219 0-2.136719-.203125-3.132812-.605468-.871094-.117188-1.753907-.167969-2.636719-.148438-4.453125.679688-8.652344-2.277344-9.511719-6.703125-.855469-4.425781 1.9375-8.738281 6.324219-9.765625.980469-.230469 1.988281-.3359375 2.996094-.3203125 2.257812-.046875 4.507812.1679685 6.714844.6484375.808593.175781 1.601562.414063 2.375.710937 3.734374 1.5 5.878906 5.433594 5.113281 9.382813-.761719 3.949219-4.222657 6.800781-8.242188 6.800781zm0 0"/><path d="m251.777344 67.234375c-18.542969 0-33.574219-15.03125-33.574219-33.574219 0-18.542968 15.03125-33.5742185 33.574219-33.5742185 18.542968 0 33.574218 15.0312505 33.574218 33.5742185 0 8.902344-3.539062 17.445313-9.832031 23.738282-6.296875 6.296874-14.835937 9.835937-23.742187 9.835937zm0 0" fill="#607d8b"/><path d="m470.621094 198.875c-8.578125-7.089844-19.625-10.480469-30.703125-9.414062l-14.429688 1.367187-142.117187-168.078125c-3.566406-10.285156-11.90625-18.191406-22.359375-21.210938-.050781 0-.085938-.066406-.136719-.09375-.773438-.296874-1.570312-.535156-2.382812-.710937-2.207032-.480469-4.457032-.6953125-6.714844-.6484375-.910156-.0039063-1.820313.0898435-2.710938.2773435-15.445312 1.246094-28.007812 12.945313-30.351562 28.261719l-145.894532 195.816406-34.855468 3.359375c-23.066406 2.210938-39.972656 22.695313-37.773438 45.761719l18.316406 192.207031c2.078126 21.472657 20.097657 37.871094 41.671876 37.921875 1.34375 0 2.695312-.066406 4.054687-.191406l401.960937-38.308594c23.066407-2.210937 39.972657-22.695312 37.773438-45.761718l-18.324219-192.207032c-1.019531-11.078125-6.429687-21.285156-15.023437-28.347656zm-218.84375-182c7.699218.023438 14.394531 5.28125 16.242187 12.757812l.066407.207032c1.625 6.960937-1.332032 14.183594-7.367188 18.003906-6.039062 3.820312-13.835938 3.402344-19.425781-1.042969-5.59375-4.449219-7.757813-11.949219-5.394531-18.691406 2.363281-6.742187 8.734374-11.253906 15.878906-11.234375zm-28.6875 33.976562c6.347656 10.746094 18.164062 17.054688 30.628906 16.347657s23.492188-8.308594 28.585938-19.707031l122.839843 145.273437-309.785156 29.527344zm258.515625 388.613282c-4.242188 5.164062-10.375 8.417968-17.027344 9.03125l-401.929687 38.292968c-13.839844 1.324219-26.136719-8.820312-27.464844-22.664062l-18.304688-192.207031c-1.320312-13.839844 8.824219-26.128907 22.664063-27.457031l19.738281-1.878907-15.660156 21.058594c-1.800782 2.398437-2.183594 5.574219-1.003906 8.332031 1.175781 2.757813 3.738281 4.679688 6.714843 5.035156 2.976563.359376 5.917969-.894531 7.71875-3.296874l24.757813-33.246094 336.511718-32.070313 20.078126 23.753907c2.992187 3.542968 8.292968 3.984374 11.832031.988281 3.542969-2.992188 3.988281-8.292969.992187-11.832031l-12.589844-14.847657 2.820313-.269531c.8125-.082031 1.625-.121094 2.441406-.117188 12.964844.023438 23.789063 9.882813 25.019531 22.789063l18.324219 192.207031c.65625 6.632813-1.363281 13.25-5.605469 18.382813zm0 0"/><path d="m132.960938 313.699219c-10.382813-10.886719-25.125-16.503907-40.121094-15.285157-14.953125 1.628907-28.367188 9.925782-36.496094 22.578126-17.714844 27.597656-14.273438 63.730468 8.335938 87.484374 9.328124 9.71875 22.160156 15.292969 35.628906 15.480469 1.488281 0 2.988281-.070312 4.476562-.210937 14.957032-1.617188 28.378906-9.917969 36.507813-22.578125 17.71875-27.59375 14.277343-63.726563-8.332031-87.476563zm-5.539063 78.058593c-5.355469 8.480469-14.25 14.09375-24.207031 15.285157-10.023438.71875-19.832032-3.128907-26.691406-10.46875-16.890626-18.046875-19.484376-45.21875-6.304688-66.128907 5.351562-8.496093 14.25-14.121093 24.214844-15.3125.941406-.089843 1.878906-.132812 2.820312-.132812 9.050782.207031 17.640625 4.019531 23.863282 10.59375 16.882812 18.054688 19.46875 45.21875 6.304687 66.140625zm0 0"/><path d="m236.617188 296.082031c-20.335938-14.664062-59.347657-6.230469-63.722657-5.222656-.351562.132813-.691406.285156-1.023437.460937-.527344.179688-1.039063.414063-1.519532.699219-.441406.289063-.851562.628907-1.222656 1.007813-.402344.347656-.761718.734375-1.085937 1.15625-.296875.441406-.554688.910156-.761719 1.402344-.238281.46875-.425781.960937-.5625 1.46875-.121094.550781-.183594 1.113281-.183594 1.679687-.058594.359375-.09375.71875-.109375 1.082031l10.347657 108.628906c.433593 4.304688 4.066406 7.574219 8.394531 7.554688h.796875c2.214844-.214844 4.257812-1.296875 5.671875-3.015625 1.417969-1.71875 2.09375-3.925781 1.882812-6.144531l-4.710937-49.371094c14.019531-.570312 39.292968-3.539062 52.039062-17.085938 5.765625-6.242187 8.601563-14.644531 7.800782-23.101562-.800782-8.457031-5.164063-16.175781-11.996094-21.226562zm-7.972657 32.792969c-8.316406 8.835938-28.714843 11.398438-41.460937 11.851562l-3.359375-34.800781c12.4375-1.894531 33.179687-3.273437 42.941406 3.769531 2.917969 2.210938 4.773437 5.542969 5.125 9.183594.351563 3.644532-.835937 7.269532-3.277344 9.996094zm0 0"/><path d="m355.628906 382.988281-63.789062 6.074219-3.96875-41.773438 45.734375-4.363281c4.589843-.46875 7.941406-4.550781 7.503906-9.144531-.4375-4.589844-4.496094-7.972656-9.089844-7.566406l-45.738281 4.355468-3.1875-33.421874 63.789062-6.078126c4.589844-.46875 7.941407-4.550781 7.503907-9.144531-.433594-4.589843-4.496094-7.96875-9.089844-7.566406l-72.125 6.875c-4.609375.441406-7.992187 4.535156-7.554687 9.148437l10.332031 108.628907c.414062 4.300781 4.023437 7.585937 8.34375 7.59375h.839843l72.125-6.875c4.613282-.4375 8-4.539063 7.558594-9.152344s-4.539062-8-9.152344-7.558594zm0 0"/><path d="m444.449219 264.90625c-2.214844.214844-4.257813 1.296875-5.675781 3.015625-1.414063 1.71875-2.089844 3.925781-1.878907 6.144531l7.394531 77.605469-55.320312-77.28125c-2.207031-3.085937-6.214844-4.308594-9.769531-2.980469-3.558594 1.332032-5.777344 4.886719-5.414063 8.664063l10.355469 108.628906c.40625 4.304687 4.019531 7.597656 8.34375 7.605469h.796875c4.613281-.445313 7.992188-4.539063 7.554688-9.148438l-7.394532-77.617187 55.332032 77.230469c2.207031 3.078124 6.210937 4.292968 9.761718 2.964843 3.550782-1.328125 5.769532-4.875 5.410156-8.648437l-10.347656-108.621094c-.4375-4.613281-4.535156-8-9.148437-7.5625zm0 0"/></svg>