<svg height="512pt" viewBox="0 0 512 512" width="512pt" xmlns="http://www.w3.org/2000/svg"><path d="m512 256c0 141.386719-114.613281 256-256 256s-256-114.613281-256-256 114.613281-256 256-256 256 114.613281 256 256zm0 0" fill="#fc1f80"/><path d="m511.703125 268.25-152.1875-152.1875-225.316406 43.757812 83.367187 83.371094-57.898437 191.140625 76.9375 76.941407c6.402343.480468 12.871093.726562 19.394531.726562 137.277344 0 249.308594-108.054688 255.703125-243.75zm0 0" fill="#af1154"/><path d="m379 379h-57.332031v-204h57.332031c35.289062 0 64 28.710938 64 64v76c0 35.289062-28.710938 64-64 64zm-29.332031-28h29.332031c19.851562 0 36-16.148438 36-36v-76c0-19.851562-16.148438-36-36-36h-29.332031zm0 0" fill="#fec300"/><path d="m159.667969 155h192.667969v279.332031h-192.667969zm0 0" fill="#ffd93b"/><path d="m255.546875 155h96.789063v279.332031h-96.789063zm0 0" fill="#feb200"/><path d="m304.332031 188.332031h28v222h-28zm0 0" fill="#fec300"/><path d="m242.332031 188.332031h28v222h-28zm0 0" fill="#ffe85f"/><path d="m255.546875 188.332031h14.785156v222h-14.785156zm0 0" fill="#fec300"/><path d="m175.332031 188.332031h28v222h-28zm0 0" fill="#ffe85f"/><path d="m325.972656 101.71875c-2.59375 0-5.136718.222656-7.613281.628906-5.425781-14.667968-19.535156-25.125-36.089844-25.125-8.230469 0-15.847656 2.59375-22.105469 6.992188-7.023437-7.582032-17.066406-12.335938-28.21875-12.335938-16.515624 0-30.597656 10.410156-36.050781 25.023438-2.503906-.339844-5.054687-.53125-7.652343-.53125-31.238282 0-56.5625 25.324218-56.5625 56.5625v.113281c.011718 5.867187 4.882812 10.578125 10.753906 10.578125h4.898437v54.210938c0 8.925781 7.238281 16.164062 16.167969 16.164062 8.925781 0 16.164062-7.238281 16.164062-16.164062v-54.210938h177.121094c8.507813 0 15.585938-6.808594 15.617188-15.316406 0-.050782 0-.105469 0-.160156 0-25.644532-20.789063-46.429688-46.429688-46.429688zm0 0" fill="#fff"/><path d="m325.972656 101.71875c-2.59375 0-5.136718.222656-7.613281.628906-5.425781-14.667968-19.535156-25.125-36.089844-25.125-8.230469 0-15.847656 2.59375-22.105469 6.992188-1.417968-1.53125-2.96875-2.941406-4.617187-4.226563v83.636719h101.238281c8.507813 0 15.585938-6.808594 15.617188-15.316406 0-.050782 0-.105469 0-.160156 0-25.644532-20.789063-46.429688-46.429688-46.429688zm0 0" fill="#e9edf5"/></svg>